<svg version="1.1" id="Camada_1" xmlns="http://www.w3.org/2000/svg" x="0" y="0" viewBox="0 0 2000 777.8" style="enable-background:new 0 0 2000 777.8" xml:space="preserve"><style>.st1{fill:#fff}</style><path d="M0 0h2000v666.7H1000v111.1H555.6V666.7H0V0zm111.1 555.6h222.2V222.2h111.1v333.3h111.1V111.1H111.1v444.5zm555.6-444.5v555.6h222.2V555.6h222.2V111.1H666.7zm222.2 111.1H1000v222.2H888.9V222.2zm333.3-111.1v444.4h222.2V222.2h111.1v333.3h111.1V222.2h111.1v333.3h111.1V111.1h-666.6z" style="fill:#cb3837"/><path class="st1" d="M111.1 555.6h222.2V222.2h111.1v333.4h111.2V111.1H111.1zM666.7 111.1v555.6h222.2V555.6h222.2V111.1H666.7zM1000 444.4H888.9V222.2H1000v222.2zM1222.2 111.1v444.5h222.2V222.2h111.2v333.4h111.1V222.2h111.1v333.4h111.1V111.1z"/></svg>